<?xml version="1.0" encoding="UTF-8"?><svg id="Layer_1" xmlns="http://www.w3.org/2000/svg" viewBox="0 0 22.25 22.25"><defs><style>.cls-1{fill:none;stroke:#fff;stroke-linecap:round;stroke-linejoin:round;stroke-width:.25px;}</style></defs><path class="cls-1" d="M7.63,3.88h2.78c.4,0,.72.32.72.72v1.03"/><path class="cls-1" d="M14.62,3.88h-2.78c-.4,0-.72.32-.72.72v1.03"/><path class="cls-1" d="M7.63,18.55h2.78c.4,0,.72-.32.72-.72v-1.21"/><path class="cls-1" d="M14.62,18.55h-2.78c-.4,0-.72-.32-.72-.72v-1.21"/><rect class="cls-1" x="6.89" y="6.89" width="8.47" height="8.47" rx="4.24" ry="4.24"/><line class="cls-1" x1="12.68" y1="6.89" x2="12.68" y2="5.99"/><line class="cls-1" x1="11.12" y1="6.89" x2="11.12" y2="5.04"/><line class="cls-1" x1="9.57" y1="6.89" x2="9.57" y2="5.99"/><line class="cls-1" x1="12.68" y1="16.26" x2="12.68" y2="15.36"/><line class="cls-1" x1="11.12" y1="17.21" x2="11.12" y2="15.36"/><line class="cls-1" x1="9.57" y1="16.26" x2="9.57" y2="15.36"/><line class="cls-1" x1="15.36" y1="12.68" x2="16.26" y2="12.68"/><line class="cls-1" x1="15.36" y1="11.13" x2="17.71" y2="11.13"/><line class="cls-1" x1="15.36" y1="9.57" x2="16.26" y2="9.57"/><line class="cls-1" x1="5.99" y1="12.68" x2="6.89" y2="12.68"/><line class="cls-1" x1="4.54" y1="11.13" x2="6.89" y2="11.13"/><line class="cls-1" x1="5.99" y1="9.57" x2="6.89" y2="9.57"/><circle class="cls-1" cx="11.12" cy="11.12" r=".96"/><ellipse class="cls-1" cx="11.12" cy="11.12" rx="1.74" ry="3.22" transform="translate(-4.07 15.2) rotate(-60)"/><ellipse class="cls-1" cx="11.12" cy="11.12" rx="1.74" ry="3.22"/><ellipse class="cls-1" cx="11.12" cy="11.12" rx="3.22" ry="1.74" transform="translate(-4.07 7.05) rotate(-30)"/><circle class="cls-1" cx="19.92" cy="11.12" r="2.21"/><ellipse class="cls-1" cx="19.92" cy="11.12" rx="1.33" ry="2.21"/><line class="cls-1" x1="19.92" y1="8.92" x2="19.92" y2="13.33"/><line class="cls-1" x1="22.12" y1="11.12" x2="17.71" y2="11.12"/><circle class="cls-1" cx="2.33" cy="11.12" r="2.21"/><ellipse class="cls-1" cx="2.33" cy="11.12" rx="1.33" ry="2.21"/><line class="cls-1" x1="2.33" y1="8.92" x2="2.33" y2="13.33"/><line class="cls-1" x1="4.54" y1="11.12" x2=".12" y2="11.12"/><circle class="cls-1" cx="3.88" cy="3.88" r="3.75"/><circle class="cls-1" cx="3.88" cy="2.42" r="1.18"/><path class="cls-1" d="M5.91,7.04l-.15-1.61c-.05-.49-.46-.87-.96-.87h-1.83c-.5,0-.91.38-.96.87l-.15,1.61"/><line class="cls-1" x1="5.04" y1="7.45" x2="4.89" y2="5.86"/><line class="cls-1" x1="2.72" y1="7.45" x2="2.87" y2="5.86"/><circle class="cls-1" cx="18.37" cy="3.88" r="3.75"/><circle class="cls-1" cx="18.37" cy="2.42" r="1.18"/><path class="cls-1" d="M20.4,7.04l-.15-1.61c-.05-.49-.46-.87-.96-.87h-1.83c-.5,0-.91.38-.96.87l-.15,1.61"/><line class="cls-1" x1="19.53" y1="7.45" x2="19.38" y2="5.86"/><line class="cls-1" x1="17.21" y1="7.45" x2="17.36" y2="5.86"/><circle class="cls-1" cx="3.88" cy="18.37" r="3.75"/><circle class="cls-1" cx="3.88" cy="16.92" r="1.18"/><path class="cls-1" d="M5.91,21.53l-.15-1.61c-.05-.49-.46-.87-.96-.87h-1.83c-.5,0-.91.38-.96.87l-.15,1.61"/><line class="cls-1" x1="5.04" y1="21.94" x2="4.89" y2="20.35"/><line class="cls-1" x1="2.72" y1="21.94" x2="2.87" y2="20.35"/><circle class="cls-1" cx="18.37" cy="18.37" r="3.75"/><circle class="cls-1" cx="18.37" cy="16.92" r="1.18"/><path class="cls-1" d="M20.4,21.53l-.15-1.61c-.05-.49-.46-.87-.96-.87h-1.83c-.5,0-.91.38-.96.87l-.15,1.61"/><line class="cls-1" x1="19.53" y1="21.94" x2="19.38" y2="20.35"/><line class="cls-1" x1="17.21" y1="21.94" x2="17.36" y2="20.35"/></svg>