<?xml version="1.0" encoding="UTF-8"?><svg id="Layer_1" xmlns="http://www.w3.org/2000/svg" viewBox="0 0 22.5 22.5"><defs><style>.cls-1{fill:none;stroke:#fff;stroke-linecap:round;stroke-linejoin:round;stroke-width:.5px;}</style></defs><path class="cls-1" d="M7.76,4h2.78c.4,0,.72.32.72.72v1.03"/><path class="cls-1" d="M14.74,4h-2.78c-.4,0-.72.32-.72.72v1.03"/><path class="cls-1" d="M7.76,18.67h2.78c.4,0,.72-.32.72-.72v-1.21"/><path class="cls-1" d="M14.74,18.67h-2.78c-.4,0-.72-.32-.72-.72v-1.21"/><rect class="cls-1" x="7.01" y="7.01" width="8.47" height="8.47" rx="4.24" ry="4.24"/><line class="cls-1" x1="12.8" y1="7.01" x2="12.8" y2="6.12"/><line class="cls-1" x1="11.25" y1="7.01" x2="11.25" y2="5.17"/><line class="cls-1" x1="9.7" y1="7.01" x2="9.7" y2="6.12"/><line class="cls-1" x1="12.8" y1="16.38" x2="12.8" y2="15.49"/><line class="cls-1" x1="11.25" y1="17.33" x2="11.25" y2="15.49"/><line class="cls-1" x1="9.7" y1="16.38" x2="9.7" y2="15.49"/><line class="cls-1" x1="15.49" y1="12.8" x2="16.38" y2="12.8"/><line class="cls-1" x1="15.49" y1="11.25" x2="17.83" y2="11.25"/><line class="cls-1" x1="15.49" y1="9.7" x2="16.38" y2="9.7"/><line class="cls-1" x1="6.12" y1="12.8" x2="7.01" y2="12.8"/><line class="cls-1" x1="4.67" y1="11.25" x2="7.01" y2="11.25"/><line class="cls-1" x1="6.12" y1="9.7" x2="7.01" y2="9.7"/><circle class="cls-1" cx="11.25" cy="11.25" r=".96"/><ellipse class="cls-1" cx="11.25" cy="11.25" rx="1.74" ry="3.22" transform="translate(-4.12 15.37) rotate(-60)"/><ellipse class="cls-1" cx="11.25" cy="11.25" rx="1.74" ry="3.22"/><ellipse class="cls-1" cx="11.25" cy="11.25" rx="3.22" ry="1.74" transform="translate(-4.12 7.13) rotate(-30)"/><circle class="cls-1" cx="20.04" cy="11.25" r="2.21"/><ellipse class="cls-1" cx="20.04" cy="11.25" rx="1.33" ry="2.21"/><line class="cls-1" x1="20.04" y1="9.04" x2="20.04" y2="13.46"/><line class="cls-1" x1="22.25" y1="11.25" x2="17.83" y2="11.25"/><circle class="cls-1" cx="2.46" cy="11.25" r="2.21"/><ellipse class="cls-1" cx="2.46" cy="11.25" rx="1.33" ry="2.21"/><line class="cls-1" x1="2.46" y1="9.04" x2="2.46" y2="13.46"/><line class="cls-1" x1="4.67" y1="11.25" x2=".25" y2="11.25"/><circle class="cls-1" cx="4" cy="4" r="3.75"/><circle class="cls-1" cx="4" cy="2.55" r="1.18"/><path class="cls-1" d="M6.03,7.16l-.15-1.61c-.05-.49-.46-.87-.96-.87h-1.83c-.5,0-.91.38-.96.87l-.15,1.61"/><line class="cls-1" x1="5.16" y1="7.57" x2="5.01" y2="5.98"/><line class="cls-1" x1="2.84" y1="7.57" x2="2.99" y2="5.98"/><circle class="cls-1" cx="18.5" cy="4" r="3.75"/><circle class="cls-1" cx="18.5" cy="2.55" r="1.18"/><path class="cls-1" d="M20.52,7.16l-.15-1.61c-.05-.49-.46-.87-.96-.87h-1.83c-.5,0-.91.38-.96.87l-.15,1.61"/><line class="cls-1" x1="19.66" y1="7.57" x2="19.51" y2="5.98"/><line class="cls-1" x1="17.34" y1="7.57" x2="17.49" y2="5.98"/><circle class="cls-1" cx="4" cy="18.5" r="3.75"/><circle class="cls-1" cx="4" cy="17.04" r="1.18"/><path class="cls-1" d="M6.03,21.66l-.15-1.61c-.05-.49-.46-.87-.96-.87h-1.83c-.5,0-.91.38-.96.87l-.15,1.61"/><line class="cls-1" x1="5.16" y1="22.07" x2="5.01" y2="20.48"/><line class="cls-1" x1="2.84" y1="22.07" x2="2.99" y2="20.48"/><circle class="cls-1" cx="18.5" cy="18.5" r="3.75"/><circle class="cls-1" cx="18.5" cy="17.04" r="1.18"/><path class="cls-1" d="M20.52,21.66l-.15-1.61c-.05-.49-.46-.87-.96-.87h-1.83c-.5,0-.91.38-.96.87l-.15,1.61"/><line class="cls-1" x1="19.66" y1="22.07" x2="19.51" y2="20.48"/><line class="cls-1" x1="17.34" y1="22.07" x2="17.49" y2="20.48"/></svg>