<?xml version="1.0" encoding="UTF-8"?><svg id="Layer_1" xmlns="http://www.w3.org/2000/svg" viewBox="0 0 22.6 22.6"><defs><style>.cls-1{fill:none;stroke:#fff;stroke-linecap:round;stroke-linejoin:round;stroke-width:.6px;}</style></defs><path class="cls-1" d="M7.81,4.05h2.78c.4,0,.72.32.72.72v1.03"/><path class="cls-1" d="M14.79,4.05h-2.78c-.4,0-.72.32-.72.72v1.03"/><path class="cls-1" d="M7.81,18.72h2.78c.4,0,.72-.32.72-.72v-1.21"/><path class="cls-1" d="M14.79,18.72h-2.78c-.4,0-.72-.32-.72-.72v-1.21"/><rect class="cls-1" x="7.06" y="7.06" width="8.47" height="8.47" rx="4.24" ry="4.24"/><line class="cls-1" x1="12.85" y1="7.06" x2="12.85" y2="6.17"/><line class="cls-1" x1="11.3" y1="7.06" x2="11.3" y2="5.22"/><line class="cls-1" x1="9.75" y1="7.06" x2="9.75" y2="6.17"/><line class="cls-1" x1="12.85" y1="16.43" x2="12.85" y2="15.54"/><line class="cls-1" x1="11.3" y1="17.38" x2="11.3" y2="15.54"/><line class="cls-1" x1="9.75" y1="16.43" x2="9.75" y2="15.54"/><line class="cls-1" x1="15.54" y1="12.85" x2="16.43" y2="12.85"/><line class="cls-1" x1="15.54" y1="11.3" x2="17.88" y2="11.3"/><line class="cls-1" x1="15.54" y1="9.75" x2="16.43" y2="9.75"/><line class="cls-1" x1="6.17" y1="12.85" x2="7.06" y2="12.85"/><line class="cls-1" x1="4.72" y1="11.3" x2="7.06" y2="11.3"/><line class="cls-1" x1="6.17" y1="9.75" x2="7.06" y2="9.75"/><circle class="cls-1" cx="11.3" cy="11.3" r=".96"/><ellipse class="cls-1" cx="11.3" cy="11.3" rx="1.74" ry="3.22" transform="translate(-4.14 15.44) rotate(-60)"/><ellipse class="cls-1" cx="11.3" cy="11.3" rx="1.74" ry="3.22"/><ellipse class="cls-1" cx="11.3" cy="11.3" rx="3.22" ry="1.74" transform="translate(-4.14 7.16) rotate(-30)"/><circle class="cls-1" cx="20.09" cy="11.3" r="2.21"/><ellipse class="cls-1" cx="20.09" cy="11.3" rx="1.33" ry="2.21"/><line class="cls-1" x1="20.09" y1="9.09" x2="20.09" y2="13.51"/><line class="cls-1" x1="22.3" y1="11.3" x2="17.88" y2="11.3"/><circle class="cls-1" cx="2.51" cy="11.3" r="2.21"/><ellipse class="cls-1" cx="2.51" cy="11.3" rx="1.33" ry="2.21"/><line class="cls-1" x1="2.51" y1="9.09" x2="2.51" y2="13.51"/><line class="cls-1" x1="4.72" y1="11.3" x2=".3" y2="11.3"/><circle class="cls-1" cx="4.05" cy="4.05" r="3.75"/><circle class="cls-1" cx="4.05" cy="2.6" r="1.18"/><path class="cls-1" d="M6.08,7.21l-.15-1.61c-.05-.49-.46-.87-.96-.87h-1.83c-.5,0-.91.38-.96.87l-.15,1.61"/><line class="cls-1" x1="5.21" y1="7.62" x2="5.06" y2="6.03"/><line class="cls-1" x1="2.89" y1="7.62" x2="3.04" y2="6.03"/><circle class="cls-1" cx="18.55" cy="4.05" r="3.75"/><circle class="cls-1" cx="18.55" cy="2.6" r="1.18"/><path class="cls-1" d="M20.57,7.21l-.15-1.61c-.05-.49-.46-.87-.96-.87h-1.83c-.5,0-.91.38-.96.87l-.15,1.61"/><line class="cls-1" x1="19.71" y1="7.62" x2="19.56" y2="6.03"/><line class="cls-1" x1="17.39" y1="7.62" x2="17.54" y2="6.03"/><circle class="cls-1" cx="4.05" cy="18.55" r="3.75"/><circle class="cls-1" cx="4.05" cy="17.09" r="1.18"/><path class="cls-1" d="M6.08,21.71l-.15-1.61c-.05-.49-.46-.87-.96-.87h-1.83c-.5,0-.91.38-.96.87l-.15,1.61"/><line class="cls-1" x1="5.21" y1="22.12" x2="5.06" y2="20.53"/><line class="cls-1" x1="2.89" y1="22.12" x2="3.04" y2="20.53"/><circle class="cls-1" cx="18.55" cy="18.55" r="3.75"/><circle class="cls-1" cx="18.55" cy="17.09" r="1.18"/><path class="cls-1" d="M20.57,21.71l-.15-1.61c-.05-.49-.46-.87-.96-.87h-1.83c-.5,0-.91.38-.96.87l-.15,1.61"/><line class="cls-1" x1="19.71" y1="22.12" x2="19.56" y2="20.53"/><line class="cls-1" x1="17.39" y1="22.12" x2="17.54" y2="20.53"/></svg>