<?xml version="1.0" encoding="UTF-8"?><svg id="Layer_1" xmlns="http://www.w3.org/2000/svg" viewBox="0 0 23.08 23.06"><defs><style>.cls-1{fill:none;stroke:#fff;stroke-linecap:round;stroke-linejoin:round;stroke-width:.5px;}</style></defs><circle class="cls-1" cx="7.74" cy="5.05" r="3.33"/><circle class="cls-1" cx="7.74" cy="3.75" r="1.05"/><path class="cls-1" d="M9.54,7.85l-.13-1.43c-.04-.44-.41-.77-.85-.77h-1.63c-.44,0-.81.33-.85.77l-.13,1.43"/><line class="cls-1" x1="8.77" y1="8.22" x2="8.63" y2="6.8"/><line class="cls-1" x1="6.71" y1="8.22" x2="6.84" y2="6.8"/><polyline class="cls-1" points="20.13 20.86 20.13 22.81 2.94 22.81 2.94 .25 20.13 .25 20.13 12.09"/><line class="cls-1" x1="12.66" y1="7.23" x2="17.53" y2="7.23"/><line class="cls-1" x1="13.02" y1="6.09" x2="17.17" y2="6.09"/><line class="cls-1" x1="13.02" y1="8.38" x2="17.17" y2="8.38"/><path class="cls-1" d="M20.06,20.86h-7.14c-.45,0-.82-.37-.82-.82v-7.14c0-.45.37-.82.82-.82h7.14c.45,0,.82.37.82.82v7.14c0,.23-.09.43-.24.58s-.35.24-.58.24Z"/><circle class="cls-1" cx="16.49" cy="16.48" r="1.05"/><ellipse class="cls-1" cx="16.49" cy="16.48" rx="1.91" ry="3.53" transform="translate(-6.03 22.52) rotate(-60)"/><ellipse class="cls-1" cx="16.49" cy="16.48" rx="1.91" ry="3.53"/><ellipse class="cls-1" cx="16.49" cy="16.48" rx="3.53" ry="1.91" transform="translate(-6.03 10.45) rotate(-30)"/><line class="cls-1" x1="17.72" y1="10.14" x2="17.72" y2="12.09"/><line class="cls-1" x1="16.49" y1="10.14" x2="16.49" y2="12.09"/><line class="cls-1" x1="18.95" y1="10.14" x2="18.95" y2="12.09"/><line class="cls-1" x1="14.03" y1="10.14" x2="14.03" y2="12.09"/><line class="cls-1" x1="15.26" y1="10.14" x2="15.26" y2="12.09"/><line class="cls-1" x1="17.72" y1="20.86" x2="17.72" y2="22.81"/><line class="cls-1" x1="16.49" y1="20.86" x2="16.49" y2="22.81"/><line class="cls-1" x1="18.95" y1="20.86" x2="18.95" y2="22.81"/><line class="cls-1" x1="14.03" y1="20.86" x2="14.03" y2="22.81"/><line class="cls-1" x1="15.26" y1="20.86" x2="15.26" y2="22.81"/><line class="cls-1" x1="22.83" y1="17.71" x2="20.88" y2="17.71"/><line class="cls-1" x1="22.83" y1="16.48" x2="20.88" y2="16.48"/><line class="cls-1" x1="22.83" y1="18.94" x2="20.88" y2="18.94"/><line class="cls-1" x1="22.83" y1="14.02" x2="20.88" y2="14.02"/><line class="cls-1" x1="22.83" y1="15.25" x2="20.88" y2="15.25"/><line class="cls-1" x1="12.1" y1="17.71" x2="10.15" y2="17.71"/><line class="cls-1" x1="12.1" y1="16.48" x2="10.15" y2="16.48"/><line class="cls-1" x1="12.1" y1="18.94" x2="10.15" y2="18.94"/><line class="cls-1" x1="12.1" y1="14.02" x2="10.15" y2="14.02"/><line class="cls-1" x1="12.1" y1="15.25" x2="10.15" y2="15.25"/><line class="cls-1" x1="4.4" y1="17.69" x2="8.82" y2="17.69"/><line class="cls-1" x1="4.4" y1="16.48" x2="8.45" y2="16.48"/><line class="cls-1" x1="4.4" y1="18.9" x2="8.45" y2="18.9"/><path class="cls-1" d="M20.13,2.2h1.95c.41,0,.74.35.74.77v11.04"/><path class="cls-1" d="M2.94,20.86H.99c-.41,0-.74-.35-.74-.77V2.97c0-.43.33-.77.74-.77h1.95"/><path class="cls-1" d="M22.83,18.94v1.15c0,.43-.33.77-.74.77h-1.95"/><line class="cls-1" x1="4.4" y1="11.8" x2="8.82" y2="11.8"/><line class="cls-1" x1="4.4" y1="10.59" x2="8.45" y2="10.59"/><line class="cls-1" x1="4.4" y1="13.01" x2="8.45" y2="13.01"/><polygon class="cls-1" points="16.49 3.9 20.13 3.9 16.49 .25 16.49 3.9"/></svg>
