<?xml version="1.0" encoding="UTF-8"?><svg id="Layer_1" xmlns="http://www.w3.org/2000/svg" viewBox="0 0 22.83 22.81"><defs><style>.cls-1{fill:none;stroke:#fff;stroke-linecap:round;stroke-linejoin:round;stroke-width:.25px;}</style></defs><circle class="cls-1" cx="7.61" cy="4.92" r="3.33"/><circle class="cls-1" cx="7.61" cy="3.63" r="1.05"/><path class="cls-1" d="M9.41,7.73l-.13-1.43c-.04-.44-.41-.77-.85-.77h-1.63c-.44,0-.81.33-.85.77l-.13,1.43"/><line class="cls-1" x1="8.64" y1="8.09" x2="8.51" y2="6.68"/><line class="cls-1" x1="6.58" y1="8.09" x2="6.71" y2="6.68"/><polyline class="cls-1" points="20.01 20.74 20.01 22.69 2.82 22.69 2.82 .12 20.01 .12 20.01 11.97"/><line class="cls-1" x1="12.53" y1="7.11" x2="17.41" y2="7.11"/><line class="cls-1" x1="12.9" y1="5.96" x2="17.04" y2="5.96"/><line class="cls-1" x1="12.9" y1="8.25" x2="17.04" y2="8.25"/><path class="cls-1" d="M19.93,20.74h-7.14c-.45,0-.82-.37-.82-.82v-7.14c0-.45.37-.82.82-.82h7.14c.45,0,.82.37.82.82v7.14c0,.23-.09.43-.24.58s-.35.24-.58.24Z"/><circle class="cls-1" cx="16.36" cy="16.35" r="1.05"/><ellipse class="cls-1" cx="16.36" cy="16.35" rx="1.91" ry="3.53" transform="translate(-5.98 22.35) rotate(-60)"/><ellipse class="cls-1" cx="16.36" cy="16.35" rx="1.91" ry="3.53"/><ellipse class="cls-1" cx="16.36" cy="16.35" rx="3.53" ry="1.91" transform="translate(-5.98 10.37) rotate(-30)"/><line class="cls-1" x1="17.59" y1="10.01" x2="17.59" y2="11.96"/><line class="cls-1" x1="16.36" y1="10.01" x2="16.36" y2="11.96"/><line class="cls-1" x1="18.82" y1="10.01" x2="18.82" y2="11.96"/><line class="cls-1" x1="13.9" y1="10.01" x2="13.9" y2="11.96"/><line class="cls-1" x1="15.13" y1="10.01" x2="15.13" y2="11.96"/><line class="cls-1" x1="17.59" y1="20.74" x2="17.59" y2="22.69"/><line class="cls-1" x1="16.36" y1="20.74" x2="16.36" y2="22.69"/><line class="cls-1" x1="18.82" y1="20.74" x2="18.82" y2="22.69"/><line class="cls-1" x1="13.9" y1="20.74" x2="13.9" y2="22.69"/><line class="cls-1" x1="15.13" y1="20.74" x2="15.13" y2="22.69"/><line class="cls-1" x1="22.7" y1="17.58" x2="20.75" y2="17.58"/><line class="cls-1" x1="22.7" y1="16.35" x2="20.75" y2="16.35"/><line class="cls-1" x1="22.7" y1="18.81" x2="20.75" y2="18.81"/><line class="cls-1" x1="22.7" y1="13.89" x2="20.75" y2="13.89"/><line class="cls-1" x1="22.7" y1="15.12" x2="20.75" y2="15.12"/><line class="cls-1" x1="11.98" y1="17.58" x2="10.02" y2="17.58"/><line class="cls-1" x1="11.98" y1="16.35" x2="10.02" y2="16.35"/><line class="cls-1" x1="11.98" y1="18.81" x2="10.02" y2="18.81"/><line class="cls-1" x1="11.98" y1="13.89" x2="10.02" y2="13.89"/><line class="cls-1" x1="11.98" y1="15.12" x2="10.02" y2="15.12"/><line class="cls-1" x1="4.28" y1="17.56" x2="8.69" y2="17.56"/><line class="cls-1" x1="4.28" y1="16.35" x2="8.33" y2="16.35"/><line class="cls-1" x1="4.28" y1="18.77" x2="8.33" y2="18.77"/><path class="cls-1" d="M20.01,2.08h1.95c.41,0,.74.35.74.77v11.04"/><path class="cls-1" d="M2.82,20.74H.87c-.41,0-.74-.35-.74-.77V2.85c0-.43.33-.77.74-.77h1.95"/><path class="cls-1" d="M22.7,18.81v1.15c0,.43-.33.77-.74.77h-1.95"/><line class="cls-1" x1="4.28" y1="11.67" x2="8.69" y2="11.67"/><line class="cls-1" x1="4.28" y1="10.46" x2="8.33" y2="10.46"/><line class="cls-1" x1="4.28" y1="12.88" x2="8.33" y2="12.88"/><polygon class="cls-1" points="16.36 3.77 20.01 3.77 16.36 .12 16.36 3.77"/></svg>