<svg
  xmlns="http://www.w3.org/2000/svg"
  width="32"
  height="32"
  viewBox="0 0 24 24"
  fill="none"
  stroke="white"
  stroke-width="0.65"
  stroke-linecap="round"
  stroke-linejoin="round"
>
  <!-- LEFT FINS -->
  <path d="M4 7c-1.1 1.3-1.6 3-1.6 4.7" />
  <path d="M5.4 5.8C4 7.1 3 9 3 11" />

  <!-- RIGHT FINS -->
  <path d="M20 7c1.1 1.3 1.6 3 1.6 4.7" />
  <path d="M18.6 5.8c1.4 1.3 2.4 3.2 2.4 5.2" />

  <!-- TALLER BELL BODY -->
  <path
    d="M19.5 13c0-5.6-3.3-9.2-7.5-9.2s-7.5 3.6-7.5 9.2c0 5.6-2.4 7.5-2.4 7.5h19.8s-2.4-1.9-2.4-7.5z"
  />

  <!-- Clapper -->
  <path d="M10 21a2 2 0 004 0" />
</svg>
