<svg
  xmlns="http://www.w3.org/2000/svg"
  width="32"
  height="32"
  viewBox="0 0 24 24"
  fill="none"
  stroke="white"
  stroke-width="0.7"
  stroke-linecap="round"
  stroke-linejoin="round"
>
  <!-- Left waves -->
  <path d="M4 6c-1 1.2-1.5 2.7-1.5 4.2" />
  <path d="M5.5 4.5C4 5.7 3 7.7 3 9.8" />

  <!-- Right waves -->
  <path d="M20 6c1 1.2 1.5 2.7 1.5 4.2" />
  <path d="M18.5 4.5C20 5.7 21 7.7 21 9.8" />

  <!-- Wider + taller bell -->
  <path d="M19 11a7 7 0 10-14 0c0 4.8-2.2 6.6-2.2 6.6h18.4S19 15.8 19 11z" />

  <!-- Clapper -->
  <path d="M10 19a2 2 0 004 0" />
</svg>
