<svg
  xmlns="http://www.w3.org/2000/svg"
  width="32"
  height="32"
  viewBox="0 0 24 24"
  fill="none"
  stroke="white"
  stroke-width="0.7"
  stroke-linecap="round"
  stroke-linejoin="round"
>
  <!-- OUTER BODY (taller) -->
  <path
    d="M19 18.5
       C19 8.2 16.3 3.2 12 3.2
       C7.7 3.2 5 8.2 5 18.5
       c0 1.4 -0.3 2.5 -0.6 3.2
       h15.2
       c-0.3 -0.7 -0.6 -1.8 -0.6 -3.2
       z"
  />

  <!-- INNER BODY OUTLINE (for visual density, also taller) -->
  <path
    d="M17.2 18.0
       C17.2 9.3 15.1 4.9 12 4.9
       C8.9 4.9 6.8 9.3 6.8 18.0
       c0 0.9 -0.2 1.7 -0.4 2.3
       h11.2
       c-0.2 -0.6 -0.4 -1.4 -0.4 -2.3
       z"
  />

  <!-- DOUBLE FINS (left) – keep current look -->
  <path d="M8.0 4.0c-0.7 -0.6 -1.2 -1.3 -1.3 -2.1" />
  <path d="M9.3 4.2c-0.6 -0.5 -1.0 -1.1 -1.1 -1.8" />

  <!-- DOUBLE FINS (right) – keep current look -->
  <path d="M16.0 4.0c0.7 -0.6 1.2 -1.3 1.3 -2.1" />
  <path d="M14.7 4.2c0.6 -0.5 1.0 -1.1 1.1 -1.8" />

  <!-- HALF CLAPPER OUTSIDE (filled) -->
  <!-- Only the bottom half-disk is visible below the bell -->
  <path
    d="
      M10.6 21.0
      A1.4 1.4 0 0 0 13.4 21.0
      L13.4 21.0
      L10.6 21.0
      Z
    "
    fill="white"
    stroke="white"
  />
</svg>
