<svg
  xmlns="http://www.w3.org/2000/svg"
  width="32"
  height="32"
  viewBox="0 0 24 24"
  fill="none"
  stroke="white"
  stroke-width="0.65"
  stroke-linecap="round"
  stroke-linejoin="round"
>

  <!-- LEFT FINS (larger gap between them) -->
  <!-- Upper left fin -->
  <path d="M4.2 6.0c-0.9 -1.7 0.3 -3.9 2.2 -4.8" />
  <!-- Lower left fin (moved down for bigger gap) -->
  <path d="M5.0 8.3c-1.0 -1.6 0.2 -3.4 1.9 -4.3" />

  <!-- RIGHT FINS (larger gap between them) -->
  <!-- Upper right fin -->
  <path d="M19.8 6.0c0.9 -1.7 -0.3 -3.9 -2.2 -4.8" />
  <!-- Lower right fin (moved down for bigger gap) -->
  <path d="M19.0 8.3c1.0 -1.6 -0.2 -3.4 -1.9 -4.3" />

  <!-- TALL BELL BODY -->
  <path
    d="M20 13.2c0-7-3.5-11.2-8-11.2S4 6.2 4 13.2c0 7-2.5 9.4-2.5 9.4h21S20 20.2 20 13.2z"
  />

  <!-- Clapper -->
  <path d="M10 23.8a2 2 0 004 0" />

</svg>
