<svg
  xmlns="http://www.w3.org/2000/svg"
  width="32"
  height="32"
  viewBox="0 0 24 24"
  fill="none"
  stroke="white"
  stroke-width="0.65"
  stroke-linecap="round"
  stroke-linejoin="round"
>

  <!-- LEFT FINS -->
  <path d="M3.6 6.2c-1.2 1.4-1.8 3.3-1.8 5" />
  <path d="M5.2 4.8c-1.6 1.2-2.7 3.3-2.7 5.5" />

  <!-- RIGHT FINS -->
  <path d="M20.4 6.2c1.2 1.4 1.8 3.3 1.8 5" />
  <path d="M18.8 4.8c1.6 1.2 2.7 3.3 2.7 5.5" />

  <!-- TALLER BELL BODY (slightly extended upward + downward) -->
  <path
    d="M20 13.2c0-7-3.5-11.2-8-11.2S4 6.2 4 13.2c0 7-2.5 9.4-2.5 9.4h21S20 20.2 20 13.2z"
  />

  <!-- Clapper (lower now because bell is taller) -->
  <path d="M10 23.8a2 2 0 004 0" />

</svg>
