<svg
  xmlns="http://www.w3.org/2000/svg"
  width="32"
  height="32"
  viewBox="0 0 24 24"
  fill="none"
  stroke="white"
  stroke-width="0.65"
  stroke-linecap="round"
  stroke-linejoin="round"
>

  <!-- CURVED FINS THAT FOLLOW THE BELL SHAPE -->
  <!-- Left fins -->
  <path d="M4.2 6.5c-0.8 -1.8 0.2 -3.8 2 -4.7" />
  <path d="M5 7.8c-0.9 -1.6 0.1 -3.3 1.7 -4.1" />

  <!-- Right fins -->
  <path d="M19.8 6.5c0.8 -1.8 -0.2 -3.8 -2 -4.7" />
  <path d="M19 7.8c0.9 -1.6 -0.1 -3.3 -1.7 -4.1" />

  <!-- TALLER BELL BODY -->
  <path
    d="M20 13.2c0-7-3.5-11.2-8-11.2S4 6.2 4 13.2c0 7-2.5 9.4-2.5 9.4h21S20 20.2 20 13.2z"
  />

  <!-- Clapper -->
  <path d="M10 23.8a2 2 0 004 0" />

</svg>
