<svg
  xmlns="http://www.w3.org/2000/svg"
  width="32"
  height="32"
  viewBox="0 0 24 24"
  fill="none"
  stroke="white"
  stroke-width="0.65"
  stroke-linecap="round"
  stroke-linejoin="round"
>

  <!-- LEFT FINS (now hugging bell curve + proper spacing) -->
  <path d="M6.2 4.9c-1.0 0.8 -1.4 2.0 -0.8 3.2" />
  <path d="M6.0 7.1c-0.9 0.9 -1.1 1.9 -0.5 2.9" />

  <!-- RIGHT FINS (same curvature corrected) -->
  <path d="M17.8 4.9c1.0 0.8 1.4 2.0 0.8 3.2" />
  <path d="M18.0 7.1c0.9 0.9 1.1 1.9 0.5 2.9" />

  <!-- Bell body (same height as before) -->
  <path
    d="M20 13.2c0-7-3.5-11.2-8-11.2S4 6.2 4 13.2c0 7-2.5 9.4-2.5 9.4h21S20 20.2 20 13.2z"
  />

  <!-- Clapper -->
  <path d="M10 23.8a2 2 0 004 0" />

</svg>
