<svg
  xmlns="http://www.w3.org/2000/svg"
  width="32"
  height="32"
  viewBox="0 0 24 24"
  fill="none"
  stroke="white"
  stroke-width="0.7"
  stroke-linecap="round"
  stroke-linejoin="round"
>

  <!-- LEFT FINS (curved + spaced) -->
  <path d="M6.3 6.0c-0.9 -1.4 -0.4 -2.4 0.6 -3.1" />
  <path d="M6.1 8.4c-0.7 -1.0 -0.5 -1.9 0.3 -2.7" />

  <!-- RIGHT FINS (curved + spaced) -->
  <path d="M17.7 6.0c0.9 -1.4 0.4 -2.4 -0.6 -3.1" />
  <path d="M17.9 8.4c0.7 -1.0 0.5 -1.9 -0.3 -2.7" />

  <!-- Bell body -->
  <path d="M20 14c0-7 -3.5-11 -8-11s-8 4 -8 11c0 7 -2 8.5 -2 8.5h20S20 21 20 14z" />

  <!-- Clapper -->
  <path d="M10 23a2 2 0 0 0 4 0" />

</svg>
