<svg
  xmlns="http://www.w3.org/2000/svg"
  width="32"
  height="32"
  viewBox="0 0 24 24"
  fill="none"
  stroke="white"
  stroke-width="0.7"
  stroke-linecap="round"
  stroke-linejoin="round"
>

  <!-- FINS (unchanged) -->
  <path d="M7.6 4.6c-0.8 -0.7 -1.4 -1.5 -1.5 -2.4" />
  <path d="M9.1 4.3c-0.7 -0.6 -1.1 -1.3 -1.2 -2.1" />
  <path d="M16.4 4.6c0.8 -0.7 1.4 -1.5 1.5 -2.4" />
  <path d="M14.9 4.3c0.7 -0.6 1.1 -1.3 1.2 -2.1" />

  <!-- BODY (20% taller version) -->
  <path
    d="M19 17.2
       C19 8.8 16.5 3.8 12 3.8
       C7.5 3.8 5 8.8 5 17.2
       c0 1.1 -0.2 2 -0.5 2.8
       h15
       c-0.3 -0.8 -0.5 -1.7 -0.5 -2.8
       z"
  />

  <!-- CLAPPER (unchanged) -->
  <path d="M10.6 20.2a1.5 1.5 0 0 0 2.8 0" />
</svg>
