<svg
  xmlns="http://www.w3.org/2000/svg"
  width="32"
  height="32"
  viewBox="0 0 24 24"
  fill="none"
  stroke="white"
  stroke-width="0.65"
  stroke-linecap="round"
  stroke-linejoin="round"
>

  <!-- LEFT FINS (more spacing) -->
  <path d="M3.6 6.2c-1.2 1.4-1.8 3.3-1.8 5" />
  <path d="M5.2 4.8c-1.6 1.2-2.7 3.3-2.7 5.5" />

  <!-- RIGHT FINS (more spacing) -->
  <path d="M20.4 6.2c1.2 1.4 1.8 3.3 1.8 5" />
  <path d="M18.8 4.8c1.6 1.2 2.7 3.3 2.7 5.5" />

  <!-- TALLER BELL BODY -->
  <path
    d="M20 14c0-6.5-3.6-10.3-8-10.3S4 7.5 4 14c0 6.3-2.7 8.3-2.7 8.3h21.4S20 20.3 20 14z"
  />

  <!-- Clapper -->
  <path d="M10 22.5a2 2 0 004 0" />

</svg>
