<svg
  xmlns="http://www.w3.org/2000/svg"
  width="32"
  height="32"
  viewBox="0 0 24 24"
  fill="none"
  stroke="white"
  stroke-width="0.65"
  stroke-linecap="round"
  stroke-linejoin="round"
>
  <!-- Left sound waves -->
  <path d="M4 7c-1.1 1.3-1.6 3-1.6 4.7" />
  <path d="M5.7 5.2C4.1 6.5 3 8.6 3 10.7" />

  <!-- Right sound waves -->
  <path d="M20 7c1.1 1.3 1.6 3 1.6 4.7" />
  <path d="M18.3 5.2c1.6 1.3 2.7 3.4 2.7 5.5" />

  <!-- Bell body (WIDER + TALLER) -->
  <path d="M19.5 12c0-4.4-3.3-8-7.5-8s-7.5 3.6-7.5 8c0 5.1-2.4 7-2.4 7h19.8s-2.4-1.9-2.4-7z" />

  <!-- Clapper -->
  <path d="M10 20a2 2 0 004 0" />
</svg>
