<?xml version="1.0" encoding="UTF-8"?><svg id="Layer_1" xmlns="http://www.w3.org/2000/svg" viewBox="0 0 22.19 22.17"><defs><style>.cls-1{fill:none;stroke:#fff;stroke-linecap:round;stroke-linejoin:round;stroke-width:.5px;}</style></defs><path class="cls-1" d="M17.05,15.53v1.29H5.13v-6.21c0-.39.32-.71.71-.71h10.49c.39,0,.71.32.71.71v1.13"/><path class="cls-1" d="M5.13,16.82h11.92c0,.99-.8,1.79-1.79,1.79H6.92c-.99,0-1.79-.8-1.79-1.79h0Z"/><rect class="cls-1" x="10.21" y="18.61" width="1.75" height="1.85"/><path class="cls-1" d="M9.36,20.47h3.46c.8,0,1.45.65,1.45,1.45h-6.37c0-.8.65-1.45,1.45-1.45Z"/><line class="cls-1" x1="10.13" y1="13.7" x2="8.93" y2="13.7"/><line class="cls-1" x1="7.65" y1="13.7" x2="6.46" y2="13.7"/><line class="cls-1" x1="8.29" y1="15.53" x2="8.29" y2="14.34"/><line class="cls-1" x1="8.29" y1="13.06" x2="8.29" y2="11.86"/><line class="cls-1" x1="9.59" y1="14.99" x2="9.24" y2="14.65"/><line class="cls-1" x1="7.34" y1="12.74" x2="7" y2="12.4"/><line class="cls-1" x1="7" y1="14.99" x2="7.34" y2="14.65"/><line class="cls-1" x1="9.24" y1="12.74" x2="9.59" y2="12.4"/><path class="cls-1" d="M10.13,13.7c.75,0,.75-.94,1.51-.94s.75.94,1.51.94.75-.94,1.51-.94.75.94,1.51.94h1.29"/><polygon class="cls-1" points="17.09 14.72 17.45 13.7 17.09 12.67 19.14 13.7 17.09 14.72"/><rect class="cls-1" x="2.71" y="6.96" width="1.48" height="12.2"/><rect class="cls-1" x=".25" y="11.09" width="1.48" height="5.74"/><line class="cls-1" x1=".25" y1="21.92" x2="21.92" y2="21.92"/><rect class="cls-1" x="8.95" y="6.96" width="1.21" height="1.9" rx=".61" ry=".61"/><line class="cls-1" x1="11.03" y1="6.96" x2="11.03" y2="8.86"/><rect class="cls-1" x="11.9" y="6.96" width="1.21" height="1.9" rx=".61" ry=".61"/><rect class="cls-1" x="5.13" y="6.96" width="1.21" height="1.9" rx=".61" ry=".61"/><line class="cls-1" x1="7.21" y1="6.96" x2="7.21" y2="8.86"/><line class="cls-1" x1="8.08" y1="6.96" x2="8.08" y2="8.86"/><path class="cls-1" d="M17.85,17.86h2.93v2.6c0,.81-.66,1.46-1.46,1.46h0c-.81,0-1.46-.66-1.46-1.46v-2.6h0Z"/><path class="cls-1" d="M20.78,18.73c.64,0,1.16.52,1.16,1.16s-.52,1.16-1.16,1.16"/><line class="cls-1" x1="19.32" y1="15.37" x2="19.32" y2="16.82"/><line class="cls-1" x1="18.38" y1="15.37" x2="18.38" y2="16.82"/><line class="cls-1" x1="20.25" y1="15.37" x2="20.25" y2="16.82"/><rect class="cls-1" x=".25" y="17.86" width="1.48" height="4.06"/><rect class="cls-1" x="2.71" y="20.2" width="1.48" height="1.72"/><circle class="cls-1" cx="17.86" cy="4.32" r="4.07"/><ellipse class="cls-1" cx="17.86" cy="4.32" rx="2.64" ry="4.07"/><ellipse class="cls-1" cx="17.86" cy="4.32" rx="1.03" ry="4.07"/><path class="cls-1" d="M21.92,4.32H4.21c-.42,0-.76.34-.76.76v1.89"/><path class="cls-1" d="M4.21,4.32c.8,0,.8-2.56,1.6-2.56s.8,2.56,1.6,2.56.8-2.56,1.6-2.56.8,2.56,1.6,2.56.8-2.56,1.6-2.56.8,2.56,1.6,2.56"/></svg>