<?xml version="1.0" encoding="UTF-8"?><svg id="Layer_1" xmlns="http://www.w3.org/2000/svg" viewBox="0 0 21.94 21.92"><defs><style>.cls-1{fill:none;stroke:#fff;stroke-linecap:round;stroke-linejoin:round;stroke-width:.25px;}</style></defs><path class="cls-1" d="M16.92,15.41v1.29H5v-6.21c0-.39.32-.71.71-.71h10.49c.39,0,.71.32.71.71v1.13"/><path class="cls-1" d="M5,16.7h11.92c0,.99-.8,1.79-1.79,1.79H6.79c-.99,0-1.79-.8-1.79-1.79h0Z"/><rect class="cls-1" x="10.09" y="18.49" width="1.75" height="1.85"/><path class="cls-1" d="M9.23,20.34h3.46c.8,0,1.45.65,1.45,1.45h-6.37c0-.8.65-1.45,1.45-1.45Z"/><line class="cls-1" x1="10" y1="13.57" x2="8.81" y2="13.57"/><line class="cls-1" x1="7.53" y1="13.57" x2="6.33" y2="13.57"/><line class="cls-1" x1="8.17" y1="15.41" x2="8.17" y2="14.21"/><line class="cls-1" x1="8.17" y1="12.93" x2="8.17" y2="11.74"/><line class="cls-1" x1="9.46" y1="14.87" x2="9.12" y2="14.52"/><line class="cls-1" x1="7.22" y1="12.62" x2="6.87" y2="12.27"/><line class="cls-1" x1="6.87" y1="14.87" x2="7.22" y2="14.52"/><line class="cls-1" x1="9.12" y1="12.62" x2="9.46" y2="12.27"/><path class="cls-1" d="M10,13.57c.75,0,.75-.94,1.51-.94s.75.94,1.51.94.75-.94,1.51-.94.75.94,1.51.94h1.29"/><polygon class="cls-1" points="16.96 14.6 17.33 13.57 16.96 12.55 19.01 13.57 16.96 14.6"/><rect class="cls-1" x="2.59" y="6.83" width="1.48" height="12.2"/><rect class="cls-1" x=".13" y="10.96" width="1.48" height="5.74"/><line class="cls-1" x1=".12" y1="21.8" x2="21.8" y2="21.8"/><rect class="cls-1" x="8.82" y="6.83" width="1.21" height="1.9" rx=".61" ry=".61"/><line class="cls-1" x1="10.9" y1="6.83" x2="10.9" y2="8.74"/><rect class="cls-1" x="11.77" y="6.83" width="1.21" height="1.9" rx=".61" ry=".61"/><rect class="cls-1" x="5" y="6.83" width="1.21" height="1.9" rx=".61" ry=".61"/><line class="cls-1" x1="7.08" y1="6.83" x2="7.08" y2="8.74"/><line class="cls-1" x1="7.95" y1="6.83" x2="7.95" y2="8.74"/><path class="cls-1" d="M17.73,17.73h2.93v2.6c0,.81-.66,1.46-1.46,1.46h0c-.81,0-1.46-.66-1.46-1.46v-2.6h0Z"/><path class="cls-1" d="M20.65,18.6c.64,0,1.16.52,1.16,1.16s-.52,1.16-1.16,1.16"/><line class="cls-1" x1="19.19" y1="15.25" x2="19.19" y2="16.7"/><line class="cls-1" x1="18.25" y1="15.25" x2="18.25" y2="16.7"/><line class="cls-1" x1="20.13" y1="15.25" x2="20.13" y2="16.7"/><rect class="cls-1" x=".13" y="17.73" width="1.48" height="4.06"/><rect class="cls-1" x="2.59" y="20.07" width="1.48" height="1.72"/><circle class="cls-1" cx="17.73" cy="4.19" r="4.07"/><ellipse class="cls-1" cx="17.73" cy="4.19" rx="2.64" ry="4.07"/><ellipse class="cls-1" cx="17.73" cy="4.19" rx="1.03" ry="4.07"/><path class="cls-1" d="M21.8,4.19H4.08c-.42,0-.76.34-.76.76v1.89"/><path class="cls-1" d="M4.08,4.19c.8,0,.8-2.56,1.6-2.56s.8,2.56,1.6,2.56.8-2.56,1.6-2.56.8,2.56,1.6,2.56.8-2.56,1.6-2.56.8,2.56,1.6,2.56"/></svg>