<?xml version="1.0" encoding="UTF-8"?>
<svg
  xmlns="http://www.w3.org/2000/svg"
  viewBox="0 0 22.5 22.5"
  width="60"
  height="60"
  fill="none"
>
  <defs>
    <style>
      .outer {
        fill: none;
        stroke: #fff;
        stroke-width: 0.9px;
        stroke-linecap: round;
        stroke-linejoin: round;
      }
      .inner {
        fill: none;
        stroke: #fff;
        stroke-width: 0.45px;
        stroke-linecap: round;
        stroke-linejoin: round;
        opacity: 0.95;
      }
    </style>
  </defs>

  <!-- Main chat bubble -->
  <path
    class="outer"
    d="
      M4.7 7.2
      C4.7 5.6 6.0 4.3 7.6 4.3
      H14.9
      C16.5 4.3 17.8 5.6 17.8 7.2
      v4.9
      c0 1.6 -1.3 2.9 -2.9 2.9
      h-4.2
      l-3.5 3.0
      v-3.0
      H7.6
      C6.0 15.0 4.7 13.7 4.7 12.1
      V7.2
      Z
    "
  />
  <path
    class="inner"
    d="
      M5.5 7.6
      C5.5 6.2 6.6 5.1 8.0 5.1
      H14.5
      C15.9 5.1 17.0 6.2 17.0 7.6
      v4.2
      c0 1.4 -1.1 2.5 -2.5 2.5
      h-3.9
      l-2.9 2.4
      v-2.4
      H8.0
      C6.6 14.7 5.5 13.6 5.5 12.2
      V7.6
      Z
    "
  />

  <!-- Question mark -->
  <path
    class="outer"
    d="M12.3 7.9
       c0 -0.9 -0.7 -1.6 -1.6 -1.6
       c-0.8 0 -1.4 0.4 -1.6 1.0"
  />
  <path
    class="inner"
    d="M12.1 8.1
       c0 -0.7 -0.6 -1.3 -1.4 -1.3
       c-0.6 0 -1.1 0.3 -1.3 0.8"
  />

  <path
    class="outer"
    d="M10.7 11.4
       v-0.4
       c0 -0.7 1.3 -0.8 1.3 -2.0"
  />
  <path
    class="inner"
    d="M10.7 11.2
       v-0.3
       c0 -0.6 1.1 -0.7 1.1 -1.7"
  />

  <circle class="outer" cx="10.7" cy="13.4" r="0.45" />
  <circle class="inner" cx="10.7" cy="13.4" r="0.25" />

  <!-- Secondary bubble -->
  <path
    class="outer"
    d="
      M18.3 9.2
      h1.3
      c1.4 0 2.5 1.1 2.5 2.5
      v3.6
      c0 1.4 -1.1 2.5 -2.5 2.5
      h-0.8
      v2.1
      l-2.6 -2.1
      h-1.9
    "
  />
  <path
    class="inner"
    d="
      M18.9 9.8
      h0.9
      c1.1 0 2.0 0.9 2.0 2.0
      v3.0
      c0 1.1 -0.9 2.0 -2.0 2.0
      h-0.6
      v1.6
      l-2.0 -1.6
      h-1.3
    "
  />
</svg>
