<!-- public/icons/qna.svg -->
<svg width="48" height="48" viewBox="0 0 48 48" fill="none" xmlns="http://www.w3.org/2000/svg">
  <path d="M10 14.5C10 11.4624 12.4624 9 15.5 9H28.5C31.5376 9 34 11.4624 34 14.5V23.5C34 26.5376 31.5376 29 28.5 29H20L13 35V29H15.5C12.4624 29 10 26.5376 10 23.5V14.5Z"
        stroke="white" stroke-width="2.2" stroke-linejoin="round"/>
  <path d="M26.8 18.3C26.8 16.6 25.4 15.2 23.7 15.2C22.2 15.2 21 16 20.6 17.3"
        stroke="white" stroke-width="2.2" stroke-linecap="round"/>
  <path d="M23.7 23.2V22.6C23.7 21.5 26.0 21.2 26.0 19.2"
        stroke="white" stroke-width="2.2" stroke-linecap="round"/>
  <path d="M23.7 25.9H23.71" stroke="white" stroke-width="3.2" stroke-linecap="round"/>
  <path d="M36 18.5H38.5C41.5376 18.5 44 20.9624 44 24V31.5C44 34.5376 41.5376 37 38.5 37H37V41L31.5 37H27"
        stroke="white" stroke-width="2.2" stroke-linejoin="round"/>
</svg>
