<?xml version="1.0" encoding="UTF-8"?>
<svg
  xmlns="http://www.w3.org/2000/svg"
  viewBox="2.8 3.8 17.9 16.2"
  width="60"
  height="60"
  fill="none"
>
  <defs>
    <style>
      .outer {
        fill: none;
        stroke: #fff;
        stroke-width: 0.9px;
        stroke-linecap: round;
        stroke-linejoin: round;
      }
      .inner {
        fill: none;
        stroke: #fff;
        stroke-width: 0.45px;
        stroke-linecap: round;
        stroke-linejoin: round;
        opacity: 0.95;
      }
    </style>
  </defs>

  <!-- MAIN Q BUBBLE -->
  <path
    class="outer"
    d="
      M3.4 7.2
      C3.4 5.6 4.7 4.3 6.3 4.3
      H13.3
      C14.9 4.3 16.2 5.6 16.2 7.2
      v5.0
      c0 1.6 -1.3 2.9 -2.9 2.9
      h-3.9
      l-3.3 2.9
      v-2.9
      H6.3
      C4.7 15.1 3.4 13.8 3.4 12.2
      V7.2
      Z
    "
  />

  <path
    class="inner"
    d="
      M4.1 7.6
      C4.1 6.2 5.2 5.1 6.6 5.1
      H12.9
      C14.3 5.1 15.4 6.2 15.4 7.6
      v4.3
      c0 1.4 -1.1 2.5 -2.5 2.5
      h-3.4
      l-2.7 2.4
      v-2.4
      H6.6
      C5.2 14.8 4.1 13.7 4.1 12.3
      V7.6
      Z
    "
  />

  <!-- QUESTION MARK -->
  <path
    class="outer"
    d="M11.1 8.0
       c0 -1.0 -0.8 -1.8 -1.8 -1.8
       c-0.8 0 -1.5 0.4 -1.8 1.1"
  />
  <path
    class="inner"
    d="M10.9 8.2
       c0 -0.8 -0.6 -1.4 -1.5 -1.4
       c-0.6 0 -1.1 0.3 -1.4 0.9"
  />

  <path
    class="outer"
    d="M9.3 11.4
       v-0.5
       c0 -0.9 1.8 -0.9 1.8 -2.3"
  />
  <path
    class="inner"
    d="M9.3 11.2
       v-0.35
       c0 -0.7 1.4 -0.7 1.4 -1.8"
  />

  <circle class="outer" cx="9.3" cy="13.6" r="0.48" />
  <circle class="inner" cx="9.3" cy="13.6" r="0.26" />

  <!-- ANSWER BUBBLE -->
  <path
    class="outer"
    d="
      M16.6 9.1
      h1.0
      c1.6 0 2.9 1.3 2.9 2.9
      v3.1
      c0 1.6 -1.3 2.9 -2.9 2.9
      h-0.7
      v2.0
      l-2.4 -2.0
      h-1.5
    "
  />
  <path
    class="inner"
    d="
      M17.0 9.7
      h0.7
      c1.2 0 2.1 0.9 2.1 2.1
      v2.7
      c0 1.2 -0.9 2.1 -2.1 2.1
      h-0.5
      v1.5
      l-1.8 -1.5
      h-1.1
    "
  />
</svg>
