<?xml version="1.0" encoding="UTF-8"?>
<svg
  xmlns="http://www.w3.org/2000/svg"
  viewBox="0 0 22.5 22.5"
  fill="none"
>
  <defs>
    <style>
      .cls-1 {
        fill: none;
        stroke: #fff;
        stroke-width: .5px;
        stroke-linecap: round;
        stroke-linejoin: round;
      }
    </style>
  </defs>

  <!-- Main chat bubble -->
  <path
    class="cls-1"
    d="
      M4.7 7.2
      C4.7 5.6 6.0 4.3 7.6 4.3
      H14.9
      C16.5 4.3 17.8 5.6 17.8 7.2
      v4.9
      c0 1.6 -1.3 2.9 -2.9 2.9
      h-4.2
      l-3.5 3.0
      v-3.0
      H7.6
      C6.0 15.0 4.7 13.7 4.7 12.1
      V7.2
      Z
    "
  />

  <!-- Question mark curve -->
  <path
    class="cls-1"
    d="M12.3 7.9
       c0 -0.9 -0.7 -1.6 -1.6 -1.6
       c-0.8 0 -1.4 0.4 -1.6 1.0"
  />

  <!-- Question mark stem -->
  <path
    class="cls-1"
    d="M10.7 11.4
       v-0.4
       c0 -0.7 1.3 -0.8 1.3 -2.0"
  />

  <!-- Question dot -->
  <circle
    class="cls-1"
    cx="10.7"
    cy="13.4"
    r="0.35"
  />

  <!-- Secondary bubble (right) -->
  <path
    class="cls-1"
    d="
      M18.3 9.2
      h1.3
      c1.4 0 2.5 1.1 2.5 2.5
      v3.6
      c0 1.4 -1.1 2.5 -2.5 2.5
      h-0.8
      v2.1
      l-2.6 -2.1
      h-1.9
    "
  />
</svg>
