<?xml version="1.0" encoding="UTF-8"?>
<svg
  xmlns="http://www.w3.org/2000/svg"
  viewBox="0 0 22.5 22.5"
  width="60"
  height="60"
  fill="none"
>
  <defs>
    <style>
      .outer {
        fill: none;
        stroke: #fff;
        stroke-width: 0.9px;
        stroke-linecap: round;
        stroke-linejoin: round;
      }
      .inner {
        fill: none;
        stroke: #fff;
        stroke-width: 0.45px;
        stroke-linecap: round;
        stroke-linejoin: round;
        opacity: 0.95;
      }
    </style>
  </defs>

  <!-- Main Q bubble -->
  <path
    class="outer"
    d="
      M4.7 7.2
      C4.7 5.6 6.0 4.3 7.6 4.3
      H14.6
      C16.2 4.3 17.5 5.6 17.5 7.2
      v5.0
      c0 1.6 -1.3 2.9 -2.9 2.9
      h-3.9
      l-3.3 2.9
      v-2.9
      H7.6
      C6.0 15.1 4.7 13.8 4.7 12.2
      V7.2
      Z
    "
  />
  <path
    class="inner"
    d="
      M5.5 7.6
      C5.5 6.2 6.6 5.1 8.0 5.1
      H14.2
      C15.6 5.1 16.7 6.2 16.7 7.6
      v4.3
      c0 1.4 -1.1 2.5 -2.5 2.5
      h-3.4
      l-2.7 2.4
      v-2.4
      H8.0
      C6.6 14.8 5.5 13.7 5.5 12.3
      V7.6
      Z
    "
  />

  <!-- Question mark -->
  <path
    class="outer"
    d="M12.4 8.0
       c0 -1.0 -0.8 -1.8 -1.8 -1.8
       c-0.8 0 -1.5 0.4 -1.8 1.1"
  />
  <path
    class="inner"
    d="M12.2 8.2
       c0 -0.8 -0.6 -1.4 -1.5 -1.4
       c-0.6 0 -1.1 0.3 -1.4 0.9"
  />

  <path
    class="outer"
    d="M10.6 11.4
       v-0.5
       c0 -0.9 1.8 -0.9 1.8 -2.3"
  />
  <path
    class="inner"
    d="M10.6 11.2
       v-0.35
       c0 -0.7 1.4 -0.7 1.4 -1.8"
  />

  <circle class="outer" cx="10.6" cy="13.6" r="0.48" />
  <circle class="inner" cx="10.6" cy="13.6" r="0.26" />

  <!-- Answer bubble (right) -->
  <path
    class="outer"
    d="
      M17.9 9.1
      h1.1
      c1.5 0 2.7 1.2 2.7 2.7
      v3.3
      c0 1.5 -1.2 2.7 -2.7 2.7
      h-0.8
      v2.0
      l-2.4 -2.0
      h-1.6
    "
  />
  <path
    class="inner"
    d="
      M18.4 9.7
      h0.8
      c1.2 0 2.1 0.9 2.1 2.1
      v2.7
      c0 1.2 -0.9 2.1 -2.1 2.1
      h-0.6
      v1.5
      l-1.8 -1.5
      h-1.2
    "
  />
</svg>
